<mxfile host="app.diagrams.net" modified="2023-07-07T02:09:57.826Z" agent="Mozilla/5.0 (Macintosh; Intel Mac OS X 10_15_7) AppleWebKit/537.36 (KHTML, like Gecko) Chrome/114.0.0.0 Safari/537.36 Edg/114.0.1823.58" version="21.3.2" etag="z2GuhGebC2PtdqpSq8tS" type="github">
  <diagram name="第 1 页" id="3BdGRBqHK1dHwkboHNEr">
    <mxGraphModel>
      <root>
        <mxCell id="0" />
        <mxCell id="1" parent="0" />
      </root>
    </mxGraphModel>
  </diagram>
</mxfile>
